PathFileType	4	(X/Y/Z)	E:\Studenten\Marcel_BSc\Ayumi_25_09_2024\25-09-2024\sumo_dl_80kg.trc
DataRate	CameraRate	NumFrames	NumMarkers	Units	OrigDataRate	OrigDataStartFrame	OrigNumFrames
200.0	200.0	6	52	mm	200.0	1061	2827	
Frame#	Time	RSACR			LSACR			USACR			LBAR			RBAR			RHEE			RMT1			RMT5			RMT2			LHEE			LMT1			LMT5			LMT2			LMMAL			LLMAL			LTIB4			LTIB2			LTIB3			LTIB1			RMMAL			RLMAL			RTIB1			RTIB2			RTIB3			RTHI1			RTHI4			RTHI3			RTHI2			LTHI1			LTHI4			LTHI3			LTHI2			FHD			LBHD			RBHD			C7			T10			CLAV			LSHO			RSHO			LRAD			LUL			LRFIN			RRAD			RUL			RUFIN			LDUPA			LMUPA			LUUPA			RDUPA			RUUPA			RMUPA			
		X1	Y1	Z1	X2	Y2	Z2	X3	Y3	Z3	X4	Y4	Z4	X5	Y5	Z5	X6	Y6	Z6	X7	Y7	Z7	X8	Y8	Z8	X9	Y9	Z9	X10	Y10	Z10	X11	Y11	Z11	X12	Y12	Z12	X13	Y13	Z13	X14	Y14	Z14	X15	Y15	Z15	X16	Y16	Z16	X17	Y17	Z17	X18	Y18	Z18	X19	Y19	Z19	X20	Y20	Z20	X21	Y21	Z21	X22	Y22	Z22	X23	Y23	Z23	X24	Y24	Z24	X25	Y25	Z25	X26	Y26	Z26	X27	Y27	Z27	X28	Y28	Z28	X29	Y29	Z29	X30	Y30	Z30	X31	Y31	Z31	X32	Y32	Z32	X33	Y33	Z33	X34	Y34	Z34	X35	Y35	Z35	X36	Y36	Z36	X37	Y37	Z37	X38	Y38	Z38	X39	Y39	Z39	X40	Y40	Z40	X41	Y41	Z41	X42	Y42	Z42	X43	Y43	Z43	X44	Y44	Z44	X45	Y45	Z45	X46	Y46	Z46	X47	Y47	Z47	X48	Y48	Z48	X49	Y49	Z49	X50	Y50	Z50	X51	Y51	Z51	X52	Y52	Z52	
1061	5.3	466.72119	701.72461	-948.7085	465.7283	704.64136	-890.14075	449.16245	708.96985	-919.57092	209.68655	252.23788	196.60577	179.66379	244.42563	-2023.8207	293.83182	34.975094	-1363.5676	125.24136	43.913757	-1461.4685	188.47289	30.072027	-1513.2994	151.83058	41.810093	-1491.812	333.36557	45.021576	-485.72583	161.41724	48.825531	-400.86276	222.1591	31.451178	-347.4296	184.26443	46.10136	-369.60986	271.68024	71.336113	-500.57834	308.17224	71.796867	-428.0192	304.92743	212.62813	-462.45972	280.47546	272.85074	-454.17154	316.79333	271.56146	-489.98935	303.61652	310.75479	-489.23251	241.8709	64.935295	-1358.4143	282.06711	72.403877	-1423.1207	259.00275	317.14529	-1383.5962	298.84567	304.00656	-1355.0697	274.33258	253.91725	-1389.2488	465.71115	593.23334	-1122.9865	360.99951	546.49939	-1214.9581	387.93222	503.31699	-1220.2413	416.71756	547.10687	-1179.6913	471.86243	591.99561	-714.29156	390.18823	509.23544	-621.01215	357.62079	549.58313	-618.48987	408.29797	560.86353	-658.25018	-192.81369	866.67352	-804.71057	-155.58629	970.99487	-828.03619	-147.7469	966.39807	-952.27112	49.605484	921.37842	-901.76532	400.94656	743.41071	-917.18909	49.336132	780.78125	-908.16833	61.6171	834.58984	-732.82568	20.656796	817.73932	-1051.4718	150.28114	309.38004	-684.38251	144.1786	309.01239	-644.31067	165.07735	225.49481	-705.86377	135.84683	302.75317	-1140.5048	128.32642	302.38248	-1187.2883	161.49573	217.11897	-1126.2727	87.078751	612.39899	-708.20953	117.311	594.10718	-673.30878	96.98909	668.89825	-688.05518	71.760399	571.53607	-1081.2351	59.29277	644.98523	-1110.1957	75.391129	587.43884	-1128.5983
1062	5.305	466.66727	701.91888	-948.7265	465.66711	704.83771	-890.18365	449.1138	709.17767	-919.58069	209.71487	252.21956	196.60545	179.70055	244.41623	-2023.8247	293.78494	34.919434	-1363.462	125.25807	43.902294	-1461.474	188.49818	30.08465	-1513.3059	151.82698	41.830284	-1491.8096	333.36346	45.006893	-485.72955	161.41963	48.824589	-400.85989	222.15137	31.445335	-347.44235	184.29997	46.095181	-369.58707	271.6965	71.327133	-500.58795	308.16742	71.777992	-428.02087	305.01654	212.65324	-462.40195	280.48215	272.84393	-454.2077	316.86179	271.53015	-489.95944	303.63672	310.74811	-489.23523	241.87169	64.923378	-1358.3961	282.06842	72.395363	-1423.1088	258.99664	317.14423	-1383.5576	298.83057	304.01791	-1355.0577	274.42142	253.89189	-1389.2816	465.6582	593.37024	-1122.9984	360.93115	546.56934	-1214.9546	387.89499	503.38156	-1220.1973	416.54617	546.85406	-1179.5583	471.82761	592.22565	-714.27429	390.19775	509.37576	-621.04279	357.58743	549.69824	-618.50726	408.24695	561.02966	-658.2594	-192.88461	866.87036	-804.71497	-155.58372	971.16718	-827.9494	-147.69331	966.69482	-952.18945	49.598541	921.57251	-901.70831	400.92355	743.5824	-917.18793	49.335804	780.98065	-908.11719	61.712193	834.71729	-732.78583	20.726248	817.84558	-1051.4165	150.07857	309.43042	-684.38013	144.04134	309.06909	-644.30597	165.77243	224.94319	-705.75024	135.89456	302.78882	-1140.2351	128.38446	302.33237	-1186.9923	161.78941	217.00175	-1126.0127	87.016167	612.58545	-708.27765	117.27045	594.26361	-673.35883	96.984642	669.07397	-688.15088	71.842491	571.6203	-1081.0508	59.467144	645.09985	-1110.0142	75.514198	587.54138	-1128.4203
1063	5.31	466.63016	702.12982	-948.74194	465.72101	704.84839	-890.50232	449.05466	709.383	-919.59601	209.75261	252.20311	196.59076	179.75392	244.40306	-2023.813	293.84476	34.964958	-1363.5754	125.25475	43.892525	-1461.4761	188.49704	30.068491	-1513.3064	151.82542	41.839859	-1491.8048	333.36835	45.000404	-485.72971	161.42474	48.81337	-400.86786	222.15617	31.445391	-347.43597	184.30466	46.099304	-369.58008	271.72986	71.311478	-500.5936	308.18387	71.767448	-428.03769	304.94229	212.62897	-462.45691	280.47272	272.8385	-454.21088	316.85117	271.5123	-489.97382	303.6676	310.74118	-489.21341	241.87857	64.915665	-1358.3918	282.06927	72.386497	-1423.0939	258.96317	317.1506	-1383.5216	298.83127	303.92593	-1354.981	274.45932	253.89696	-1389.301	465.60156	593.49792	-1123.0016	360.8541	546.63818	-1214.9298	387.82523	503.45624	-1220.1729	416.47433	546.97052	-1179.5551	471.76556	592.43878	-714.25189	390.16107	509.51535	-621.02936	357.52594	549.81116	-618.51886	408.19995	561.19995	-658.25366	-192.93594	867.06567	-804.71722	-155.57959	971.35126	-827.86096	-147.61259	966.97375	-952.08459	49.6017	921.77686	-901.67157	400.91998	743.77136	-917.1969	49.311966	781.18121	-908.05853	61.802696	834.84283	-732.76813	20.499269	818.11401	-1051.6105	149.87915	309.49069	-684.37225	143.93346	309.13297	-644.30347	166.33568	224.51093	-705.62164	135.93198	302.81107	-1139.9628	128.41684	302.30426	-1186.6984	162.11269	216.91826	-1125.8727	86.959969	612.77441	-708.35602	117.24471	594.41901	-673.4787	97.012863	669.28027	-688.17487	71.916489	571.75067	-1080.8834	59.630775	645.2298	-1109.849	75.59893	587.66962	-1128.2377
1064	5.315	466.62473	702.32269	-948.70453	465.85721	705.24097	-890.39471	448.99997	709.58368	-919.60779	209.87672	252.15253	196.37755	179.7989	244.39369	-2023.8149	293.80072	34.922905	-1363.4359	125.25477	43.892994	-1461.4839	188.51538	30.078018	-1513.3065	151.82964	41.844265	-1491.8059	333.36945	44.989769	-485.72906	161.42624	48.812122	-400.85626	222.15996	31.437162	-347.43686	184.31078	46.092728	-369.58966	271.72159	71.299446	-500.60605	308.16879	71.748199	-428.05493	304.91934	212.60136	-462.50076	279.94632	272.40732	-454.34964	316.87683	271.54755	-489.96149	303.68896	310.74185	-489.20233	241.87196	64.898087	-1358.3785	282.07153	72.378853	-1423.0907	259.31577	317.13464	-1383.5825	298.83682	304.03104	-1355.1018	274.40601	253.88939	-1389.2693	465.53174	593.63794	-1123.0162	360.76038	546.70386	-1214.9194	387.77222	503.5448	-1220.1449	416.49249	547.35815	-1179.6637	471.71204	592.65326	-714.22131	390.11441	509.66425	-621.05042	357.47672	549.9082	-618.51636	408.12036	561.36053	-658.25519	-192.99799	867.27637	-804.72101	-155.56516	971.58246	-827.75946	-147.5347	967.26154	-951.98151	49.611336	921.98322	-901.62659	400.88205	743.95605	-917.21075	49.289425	781.38818	-908.00513	61.89378	834.96741	-732.75543	20.825026	818.0929	-1051.3317	149.69218	309.53482	-684.35529	143.85234	309.17056	-644.3139	166.65225	224.16592	-705.48285	135.95735	302.81812	-1139.7242	128.41299	302.29251	-1186.432	162.23253	216.7684	-1125.7676	86.896194	612.94751	-708.4455	117.19976	594.5661	-673.61401	96.99015	669.44086	-688.26672	71.955566	571.90912	-1080.6943	59.743858	645.38342	-1109.7064	75.709732	587.78369	-1128.0298
1065	5.32	466.57858	702.51288	-948.71783	465.66571	705.26831	-890.55133	448.96475	709.78094	-919.62781	209.90123	252.12935	196.3614	179.83862	244.38995	-2023.817	293.798	34.925198	-1363.4745	125.27136	43.876984	-1461.4965	188.50818	30.075233	-1513.3173	151.83524	41.854057	-1491.8184	333.36514	44.991524	-485.7424	161.43356	48.808132	-400.8605	222.15154	31.443022	-347.43835	184.30209	46.102741	-369.58447	271.74451	71.279747	-500.60504	308.18393	71.762711	-428.0419	304.99359	212.63072	-462.39264	280.45734	272.80328	-454.22189	316.91208	271.56012	-489.9151	303.70874	310.72949	-489.19482	241.88239	64.882721	-1358.3613	282.06992	72.378387	-1423.0886	259.2858	317.15485	-1383.5703	298.83466	304.0618	-1355.1444	274.33078	253.94589	-1389.2289	465.4639	593.75006	-1123.0261	360.68414	546.78424	-1214.9137	387.71631	503.66031	-1220.1703	416.36166	547.46472	-1179.6804	471.6265	592.86139	-714.22229	390.08237	509.77856	-621.05939	357.39951	550.01019	-618.53503	408.05859	561.50165	-658.27509	-193.05287	867.48975	-804.72223	-155.54352	971.79663	-827.66077	-147.49876	967.6131	-951.91162	49.621601	922.19495	-901.6073	400.87057	744.15381	-917.2334	49.26894	781.60217	-907.95166	61.965225	835.09772	-732.74182	20.5952	818.36865	-1051.5358	149.18912	309.63708	-684.38593	143.80164	309.20749	-644.3028	166.79855	223.92673	-705.36841	135.95093	302.80859	-1139.5365	128.40781	302.2493	-1186.2249	162.43541	216.61259	-1125.6987	86.859612	613.1095	-708.53186	117.16925	594.72931	-673.76819	96.947502	669.61932	-688.34711	72.014679	572.04688	-1080.4999	59.837463	645.51569	-1109.5435	75.787003	587.8869	-1127.8458
1066	5.325	466.52823	702.69464	-948.74011	465.6214	705.48792	-890.54053	448.91232	709.987	-919.64941	209.95538	252.11882	196.35498	179.8802	244.35878	-2023.817	293.85037	34.950836	-1363.5712	125.26557	43.879124	-1461.4917	188.51494	30.079731	-1513.3376	151.84248	41.860851	-1491.8303	333.36969	44.975334	-485.72757	161.43074	48.815544	-400.86511	222.16089	31.443174	-347.42886	184.32607	46.096394	-369.58075	271.75784	71.282272	-500.61487	308.21588	71.760719	-428.04761	304.93265	212.62317	-462.46539	279.92746	272.38464	-454.36044	316.89966	271.55386	-489.90869	303.72696	310.72729	-489.1716	241.89825	64.862976	-1358.3604	282.09229	72.378632	-1423.0763	259.23068	317.15253	-1383.5602	298.79916	303.91934	-1355.0054	274.45773	253.90634	-1389.2852	465.41205	593.87933	-1123.0411	360.62286	546.85406	-1214.9248	387.66534	503.74283	-1220.1869	416.30692	547.58032	-1179.6919	471.54538	593.04749	-714.19598	390.04819	509.90616	-621.03937	357.32526	550.10956	-618.55023	407.94342	561.62439	-657.99072	-193.09509	867.70532	-804.74127	-155.54221	972.02203	-827.5661	-147.47012	967.95782	-951.83514	49.617207	922.41626	-901.61414	400.82483	744.32642	-917.26666	49.28648	781.83069	-907.91675	62.051208	835.22595	-732.74805	20.960197	818.32385	-1051.2644	149.04843	309.68298	-684.38702	143.79117	309.24564	-644.31647	166.81522	223.7735	-705.31415	135.94301	302.79736	-1139.3726	128.42442	302.19122	-1186.0452	162.73125	216.46786	-1125.6635	86.821991	613.27551	-708.61432	117.15295	594.87701	-673.88885	96.776283	669.90558	-688.18042	72.069748	572.20038	-1080.2845	59.898613	645.63336	-1109.3849	75.8032	587.99017	-1127.6462
